<svg xmlns="http://www.w3.org/2000/svg"
    xmlns:xlink="http://www.w3.org/1999/xlink" version="1.1" x="0px" y="0px" viewBox="0 0 64 64" enable-background="new 0 0 64 64" xml:space="preserve" style="background-color:#F0F4F5">
    <g fill="#768692" transform="matrix(0.3,0,0,0.3,22.2,22.2)">
        <path d="M60,5.5H4c-2.2,0-4,1.8-4,4v48c0,2.2,1.8,4,4,4h56c2.2,0,4-1.8,4-4v-48C64,7.3,62.2,5.5,60,5.5z M62,57.5c0,1.1-0.9,2-2,2   H4c-1.1,0-2-0.9-2-2v-48c0-1.1,0.9-2,2-2h56c1.1,0,2,0.9,2,2V57.5z"></path>
        <path d="M18,23.5c2.8,0,5-2.2,5-5s-2.2-5-5-5s-5,2.2-5,5S15.2,23.5,18,23.5z M18,15.2c1.8,0,3.3,1.5,3.3,3.3s-1.5,3.3-3.3,3.3   s-3.3-1.5-3.3-3.3S16.2,15.2,18,15.2z"></path>
        <path d="M55.7,48.7L37,25c-0.4-0.4-1-0.4-1.4,0c-0.1,0.1-0.2,0.2-0.2,0.4l-6.7,11.2L23,30.9c-0.9-0.9-1.5-0.8-1.9-0.4l0,0   c-0.1,0.1-0.2,0.2-0.2,0.3l-11.8,18c-0.3,0.5-0.1,1.1,0.4,1.4h0.1c0.2,0.1,0.4,0.2,0.6,0.2h45c0.6,0,1-0.4,1-1l0,0   C56,49.2,55.9,48.9,55.7,48.7z M21.8,32.7l5.8,5.8c0.3,0.3,0.5,0.4,0.7,0.5c0.4,0.3,0.8,0.3,1.2-0.2l6.8-11.4l16.7,21H11.5   L21.8,32.7z"></path>
    </g>
</svg>